<svg xmlns="http://www.w3.org/2000/svg" id="svg3014" width="26" height="22" version="1.1"><metadata id="metadata3019"/><path id="rect2401-5" d="m4 6c-1.108 0-2 0.892-2 2v8c0 1.108 0.892 2 2 2h18c1.108 0 2-0.892 2-2v-1h0.38433c1.108 0 1.616-0.892 1.616-2v-2c0-1.108-0.426-2-1.534-2h-0.466v-1c0-1.108-0.892-2-2-2zm0 1h18c0.554 0 1 0.446 1 1v8c0 0.554-0.446 1-1 1h-18c-0.554 0-1-0.446-1-1v-8c0-0.554 0.446-1 1-1zm20 3c0.59742 0 1 0.051 1 1v2c0 0.9914-0.40645 1-1 1z" opacity=".3"/><rect id="rect3190-4" width="8" height="7" x="8" y="-11" fill-rule="evenodd" opacity=".3" rx=".5" ry=".5" transform="rotate(90)"/><path id="rect2401" fill="#dfdbd2" d="m4 5c-1.108 0-2 0.892-2 2v8c0 1.108 0.892 2 2 2h18c1.108 0 2-0.892 2-2v-1h0.38433c1.108 0 1.616-0.892 1.616-2v-2c0-1.108-0.426-2-1.534-2h-0.466v-1c0-1.108-0.892-2-2-2zm0 1h18c0.554 0 1 0.446 1 1v8c0 0.554-0.446 1-1 1h-18c-0.554 0-1-0.446-1-1v-8c0-0.554 0.446-1 1-1zm20 3c0.59742 0 1 0.051 1 1v2c0 0.9914-0.40645 1-1 1z"/><rect id="rect3192" width="19.5" height="9.5" x="3.25" y="6.25" fill="none" stroke="#dfdbd2" stroke-linecap="round" stroke-width=".5" opacity=".3" rx=".75" ry=".75"/><rect id="rect3190" width="8" height="7" x="7" y="-11" fill="#dfdbd2" fill-rule="evenodd" rx=".5" ry=".5" transform="rotate(90)"/></svg>