<svg xmlns="http://www.w3.org/2000/svg" xmlns:svg="http://www.w3.org/2000/svg" xmlns:xlink="http://www.w3.org/1999/xlink" id="svg2414" width="128" height="128" version="1.0"><defs id="defs2416"><linearGradient id="linearGradient3205"><stop id="stop3207" offset="0" stop-color="#ddd" stop-opacity="1"/><stop id="stop3209" offset="1" stop-color="#fff" stop-opacity="1"/></linearGradient><linearGradient id="linearGradient24042" x1="21.621" x2="21.621" y1="34.246" y2="45.308" gradientTransform="matrix(1.1107288,0,0,1.1107288,5.9724512,-34.506254)" gradientUnits="userSpaceOnUse" xlink:href="#linearGradient3205"/><linearGradient id="linearGradient3305"><stop id="stop3307" offset="0" stop-color="#fff" stop-opacity="1"/><stop id="stop3309" offset="1" stop-color="#d2d2d2" stop-opacity="1"/></linearGradient><radialGradient id="radialGradient24040" cx="63.214" cy="18.714" r="22.821" fx="63.214" fy="18.714" gradientTransform="matrix(1,0,0,0.1471049,0,15.961323)" gradientUnits="userSpaceOnUse" xlink:href="#linearGradient3305"/><linearGradient id="linearGradient3203"><stop id="stop3205" offset="0" stop-color="#fff" stop-opacity="1"/><stop id="stop3208" offset="1" stop-color="#fff" stop-opacity="0"/></linearGradient><linearGradient id="linearGradient24038" x1="56.458" x2="-3.929" y1="156.917" y2="25.985" gradientTransform="matrix(1.1107288,0,0,1.1107288,75.393002,-10.704922)" gradientUnits="userSpaceOnUse" xlink:href="#linearGradient3203"/><linearGradient id="linearGradient3195"><stop id="stop3197" offset="0" stop-color="#fff" stop-opacity="1"/><stop id="stop3199" offset="1" stop-color="#fff" stop-opacity="0"/></linearGradient><linearGradient id="linearGradient24036" x1="9.045" x2="-47.5" y1="158.826" y2=".696" gradientTransform="matrix(1.1107288,0,0,1.1107288,75.393002,-10.704922)" gradientUnits="userSpaceOnUse" xlink:href="#linearGradient3195"/><linearGradient id="linearGradient3382"><stop id="stop3384" offset="0" stop-color="#fff" stop-opacity="1"/><stop id="stop3388" offset=".5" stop-color="#fff" stop-opacity="1"/><stop id="stop3386" offset="1" stop-color="#a0a0a0" stop-opacity="1"/></linearGradient><radialGradient id="radialGradient24034" cx="-10.228" cy="42.741" r="30.709" fx="-10.228" fy="42.741" gradientTransform="matrix(1.1107288,0,0,0.171403,75.442588,12.05118)" gradientUnits="userSpaceOnUse" xlink:href="#linearGradient3382"/></defs><metadata id="metadata2419"/><g id="layer1"><g id="g23994" transform="translate(-2.38e-4,-2.1e-4)"><path id="path3588" fill="url(#radialGradient24034)" fill-opacity="1" stroke="none" stroke-dashoffset="0" stroke-linecap="round" stroke-linejoin="miter" stroke-miterlimit="4" stroke-opacity="1" stroke-width=".5" d="M 64.058729,21.467155 C 45.227116,21.467155 29.973238,18.717504 29.973238,15.323436 L 29.973238,10.940024 L 98.191324,10.940024 L 98.17893,15.323436 C 98.17893,18.717506 82.890343,21.467154 64.058729,21.467155 z"/><path id="path3258" fill="url(#linearGradient24036)" fill-opacity="1" fill-rule="evenodd" stroke="none" stroke-linecap="butt" stroke-linejoin="miter" stroke-opacity="1" stroke-width="1" d="M 40.881071,14.84184 L 41.091447,111.45914 C 45.982997,112.72875 50.753878,113.15368 55.558559,113.81521 L 55.558559,15.635218 L 40.881071,14.84184 z"/><path id="path3260" fill="url(#linearGradient24038)" fill-opacity="1" fill-rule="evenodd" stroke="none" stroke-linecap="butt" stroke-linejoin="miter" stroke-opacity="1" stroke-width="1" d="M 84.516846,15.635218 L 84.516846,112.17637 C 87.684305,111.30547 90.637921,110.29202 93.244002,109.04686 L 93.244002,13.255084 L 84.516846,15.635218 z"/><path id="path3248" fill="#7f7f7f" fill-opacity="1" stroke="none" stroke-dashoffset="0" stroke-linecap="round" stroke-linejoin="miter" stroke-miterlimit="4" stroke-opacity="1" stroke-width=".5" d="M 64.070014,17.420318 C 45.238401,17.420318 29.984523,14.670666 29.984523,11.276599 L 29.984523,9.6105063 L 98.20261,9.6105063 L 98.190216,11.276599 C 98.190216,14.670669 82.901627,17.420317 64.070014,17.420318 z"/><path id="path3198" fill="url(#radialGradient24040)" fill-opacity="1" stroke="#7f7f7f" stroke-dasharray="none" stroke-dashoffset="0" stroke-linecap="round" stroke-linejoin="miter" stroke-miterlimit="4" stroke-opacity="1" stroke-width="1" d="M 85.535715,18.714285 A 22.321428,2.8571429 0 1 1 40.892859,18.714285 A 22.321428,2.8571429 0 1 1 85.535715,18.714285 z" transform="matrix(1.1107288,0,0,1.1107288,-5.928215,-10.704922)"/><path id="path3200" fill="url(#linearGradient24042)" fill-opacity="1" stroke="none" stroke-dasharray="none" stroke-dashoffset="0" stroke-linecap="round" stroke-linejoin="miter" stroke-miterlimit="4" stroke-opacity="1" stroke-width=".5" d="M 64.072494,3.5312508 C 45.240881,3.5312508 29.987004,6.2809022 29.987004,9.6749683 C 29.987004,13.069038 45.24088,15.818686 64.072494,15.818687 C 82.904107,15.818687 98.192696,13.06904 98.192695,9.6749683 C 98.192695,6.2809 82.904107,3.5312519 64.072494,3.5312508 z M 64.072494,6.5163345 C 77.758259,6.5163335 88.890341,7.9231909 88.890341,9.6749683 C 88.890342,11.426745 77.758259,12.868313 64.072494,12.868313 C 50.386728,12.868311 39.289357,11.426746 39.289357,9.6749683 C 39.289357,7.9231899 50.386728,6.5163345 64.072494,6.5163345 z"/><path id="path3215" fill="#7f7f7f" fill-opacity="1" stroke="none" stroke-dasharray="none" stroke-dashoffset="0" stroke-linecap="round" stroke-linejoin="miter" stroke-miterlimit="4" stroke-opacity="1" stroke-width=".6" d="M 71.877067,9.2802686 C 71.877067,9.7748763 68.740975,10.176296 64.876861,10.176296 C 61.012747,10.176296 57.876654,9.7748763 57.876654,9.2802686 L 57.867381,6.8420135 L 71.858708,6.8940705 L 71.877067,9.2802686 z"/><path id="path3213" fill="#fff" fill-opacity="1" stroke="none" stroke-dasharray="none" stroke-dashoffset="0" stroke-linecap="round" stroke-linejoin="miter" stroke-miterlimit="4" stroke-opacity="1" stroke-width="1.785" d="M 85.535715,18.714285 A 22.321428,2.8571429 0 1 1 40.892859,18.714285 A 22.321428,2.8571429 0 1 1 85.535715,18.714285 z" transform="matrix(0.3136093,0,0,0.3136093,45.052278,0.9367182)"/></g></g></svg>