<svg xmlns="http://www.w3.org/2000/svg" xmlns:svg="http://www.w3.org/2000/svg" xmlns:xlink="http://www.w3.org/1999/xlink" id="svg3734" width="24" height="24" version="1.1"><metadata id="metadata29"/><defs id="defs3736"><linearGradient id="linearGradient4456"><stop id="stop4458" offset="0" stop-color="#fff" stop-opacity="1"/><stop id="stop4460" offset="1" stop-color="#fff" stop-opacity="0"/></linearGradient><linearGradient id="linearGradient3390-178-986-453-4-5"><stop id="stop3624-8-6" offset="0" stop-color="#bb2b12"/><stop id="stop3626-1-1" offset="1" stop-color="#cd7233"/></linearGradient><linearGradient id="linearGradient3732" x1="-55.189" x2="-31.523" y1="191.52" y2="182.48" gradientTransform="matrix(.92957 0 0 .99594 51.302 -181.74)" gradientUnits="userSpaceOnUse" xlink:href="#linearGradient3390-178-986-453-4-5"/><linearGradient id="linearGradient7012-661-145-733-759-865-745-661-970-94-1-0"><stop id="stop3618-1-9" offset="0" stop-color="#d7e866" stop-opacity="1"/><stop id="stop3620-9-3" offset="1" stop-color="#8cab2a" stop-opacity="1"/></linearGradient><linearGradient id="linearGradient4322" x1="-31.523" x2="-55.189" y1="182.48" y2="191.52" gradientTransform="matrix(.92957 0 0 .99594 51.302 -181.74)" gradientUnits="userSpaceOnUse" xlink:href="#linearGradient7012-661-145-733-759-865-745-661-970-94-1-0"/><linearGradient id="linearGradient4462" x1="22" x2="0" y1="0" y2="9" gradientUnits="userSpaceOnUse" xlink:href="#linearGradient4456"/><linearGradient id="linearGradient3773" x1="22" x2="0" y1="0" y2="9" gradientUnits="userSpaceOnUse" xlink:href="#linearGradient4456"/><linearGradient id="linearGradient3775" x1="22" x2="0" y1="0" y2="9" gradientUnits="userSpaceOnUse" xlink:href="#linearGradient4456"/><linearGradient id="linearGradient3777" x1="-43.163" x2="-55.189" y1="186.401" y2="191.52" gradientTransform="matrix(0.92957,0,0,0.99594,51.302,-181.74)" gradientUnits="userSpaceOnUse" xlink:href="#linearGradient7012-661-145-733-759-865-745-661-970-94-1-0"/><linearGradient id="linearGradient3785" x1="-43.163" x2="-55.189" y1="186.401" y2="191.52" gradientTransform="matrix(0.92957,0,0,0.99594,51.302,-181.74)" gradientUnits="userSpaceOnUse" xlink:href="#linearGradient7012-661-145-733-759-865-745-661-970-94-1-0"/><linearGradient id="linearGradient3787" x1="22" x2="0" y1="0" y2="9" gradientUnits="userSpaceOnUse" xlink:href="#linearGradient4456"/><linearGradient id="linearGradient3789" x1="22" x2="0" y1="0" y2="9" gradientUnits="userSpaceOnUse" xlink:href="#linearGradient4456"/></defs><g id="layer1" transform="matrix(0 -1 1 0 6.9996 23)"><g id="g3779" transform="matrix(1.1704146,0,0,1.1447325,4.1288136,-0.68979301)"><path id="path3169-2-3" fill="none" stroke="#42770c" stroke-linecap="round" stroke-linejoin="round" stroke-opacity="1" stroke-width="5" d="M 8.4802,-1.4936 2.5,4.9999 8.4802,11.494" enable-background="new"/><path id="path4277" fill="none" stroke="url(#linearGradient3785)" stroke-linecap="round" stroke-linejoin="round" stroke-width="3" d="M 8.5111,-1.4554 2.5,4.9999 8.5112,11.455" enable-background="new"/><path id="path4454" fill="none" stroke="url(#linearGradient3787)" stroke-linecap="round" stroke-linejoin="round" d="M 8.9731,10.405 6.5,8 C 4.9290304,6.7099437 4.1875248,4.8033976 4.1875248,4.8033976 4.2668722,4.7630228 5.1907318,3.2730085 6.5,2 l 2.4048,-2.3382 c 1.5,-2 -0.5,-2.5 -1.5,-1.5 L 2,4 C 1.5,4.5 1.4724,5.3333 2,6 l 5.4731,5.9048 c 1,1 3.0209,-0.02115 1.5,-1.5 z" enable-background="new" opacity=".4"/><path id="path4464" fill="none" stroke="url(#linearGradient3789)" stroke-linecap="round" stroke-linejoin="round" d="m 6.5,2 2.3343,-2.3364 c 1.5,-2 -0.5,-2.5 -1.5,-1.5 L 2,4 C 1.5,4.5 1.4724,5.3333 2,6 l 5.4735,5.9731 c 1,1 3.0001,-1.32e-4 1.5,-1.5 L 6.5,8.0001" enable-background="new" opacity=".4"/></g></g></svg>