<svg xmlns="http://www.w3.org/2000/svg" xmlns:svg="http://www.w3.org/2000/svg" xmlns:xlink="http://www.w3.org/1999/xlink" id="svg2" width="256" height="170" version="1.0"><defs id="defs4"><linearGradient id="linearGradient4769"><stop id="stop4771" offset="0" stop-color="#929090" stop-opacity="1"/><stop id="stop4773" offset="1" stop-color="#000" stop-opacity="1"/></linearGradient><linearGradient id="linearGradient4655"><stop id="stop4657" offset="0" stop-color="#000" stop-opacity="0"/><stop id="stop4659" offset="1" stop-color="#000" stop-opacity="1"/></linearGradient><radialGradient id="radialGradient4767" cx="-56.428" cy="96.877" r="46.603" fx="-56.428" fy="96.877" gradientTransform="matrix(1.2492724,0,0,2.068344,122.15235,-89.141513)" gradientUnits="userSpaceOnUse" xlink:href="#linearGradient4769"/><radialGradient id="radialGradient4802" cx="-56.428" cy="96.877" r="46.603" fx="-56.428" fy="96.877" gradientTransform="matrix(1.2492724,0,0,2.068344,274.65989,-89.225399)" gradientUnits="userSpaceOnUse" xlink:href="#linearGradient4769"/></defs><metadata id="metadata7"/><g id="layer1"><path id="path4718" fill="url(#radialGradient4767)" fill-opacity="1" fill-rule="nonzero" stroke="#0b0b12" stroke-dasharray="none" stroke-miterlimit="4" stroke-opacity="1" stroke-width=".843" d="M 51.644515,8.6985209 C 64.29576,8.6985209 75.833018,22.236609 84.221699,44.324273 C 92.610379,66.411938 97.83927,96.997617 97.83927,130.76126 C 93.542051,180.01465 4.7932821,178.94536 5.4806421,130.76126 C 5.4806421,96.997617 10.70953,66.411938 19.09821,44.324273 C 27.486891,22.236609 38.99327,8.6985209 51.644515,8.6985209 z" opacity="1"/><path id="path4800" fill="url(#radialGradient4802)" fill-opacity="1" fill-rule="nonzero" stroke="#0b0b12" stroke-dasharray="none" stroke-miterlimit="4" stroke-opacity="1" stroke-width=".843" d="M 204.15205,8.6146347 C 216.8033,8.6146347 228.34056,22.152723 236.72924,44.240387 C 245.11792,66.328052 250.34681,96.913735 250.34681,130.67737 C 246.04959,179.93076 157.30082,178.86147 157.98818,130.67737 C 157.98818,96.913735 163.21707,66.328052 171.60575,44.240387 C 179.99443,22.152723 191.50081,8.6146347 204.15205,8.6146347 z" opacity="1"/></g></svg>