<svg xmlns="http://www.w3.org/2000/svg" xmlns:svg="http://www.w3.org/2000/svg" id="svg1609" width="156.262" height="144.407" version="1.1"><metadata id="metadata3"/><defs id="defs1610"><marker id="Arrow1Lstart" orient="auto" overflow="visible" refX="0" refY="0"><path id="path4080" fill-rule="evenodd" stroke="#000" stroke-width="1pt" marker-start="none" d="M 0.0,0.0 L 5.0,-5.0 L -12.5,0.0 L 5.0,5.0 L 0.0,0.0 z" transform="scale(0.8)"/></marker><marker id="ArrowEnd" markerHeight="3" markerUnits="strokeWidth" markerWidth="4" orient="auto" refX="0" refY="5" viewBox="0 0 10 10"><path id="path1612" d="M 0 0 L 10 5 L 0 10 z"/></marker><marker id="ArrowStart" markerHeight="3" markerUnits="strokeWidth" markerWidth="4" orient="auto" refX="10" refY="5" viewBox="0 0 10 10"><path id="path1614" d="M 10 0 L 0 5 L 10 10 z"/></marker></defs><path id="path1616" fill="#fff" stroke="#000" stroke-width="2.265" d="m 3.7572727,127.56928 c -1.0351841,1.99488 -2.2552863,3.85999 -2.2554,6.04935 l 0.010186,0.91504 c 0,4.72532 3.6990131,7.58193 7.9516864,7.58193 l 137.4099049,0 c 4.25302,0 7.91576,-3.54118 7.91576,-8.2665 l -0.0451,-0.91909 c 0,-2.18938 -1.07632,-4.09051 -2.25506,-6.04936 L 84.437201,4.8059348 C 81.430531,1.4651737 76.556047,1.4651737 73.548922,4.8063879 L 3.7572727,127.56928 z"/><path id="path1617" fill="#fc0" stroke="#000" stroke-linecap="round" stroke-linejoin="round" stroke-width="5.19" d="m 79.371163,12.655975 -67.484495,120.296575 65.104999,0 3.034729,0 64.381654,0 -64.172359,-120.296575 -0.864528,0 z"/><path id="path3186" fill="#000" fill-opacity="1" fill-rule="evenodd" stroke="#000" stroke-dasharray="none" stroke-dashoffset="0" stroke-linecap="square" stroke-linejoin="miter" stroke-miterlimit="4" stroke-opacity="1" stroke-width="0" marker-mid="none" marker-start="none" d="M 75.507498,36.476639 58.854108,94.667794 79.144445,82.799862 77.804518,106.72713 67.068031,106.1065 77.038844,128.33395 94.184909,109.0183 82.781393,107.30141 94.457907,67.294981 68.425022,83.182698 87.758267,36.859476 z"/></svg>