<svg xmlns="http://www.w3.org/2000/svg" xmlns:cc="http://web.resource.org/cc/" xmlns:svg="http://www.w3.org/2000/svg" id="svg2" width="100" height="100" version="1.0"><defs id="defs4"><linearGradient id="linearGradient2202"><stop id="stop2204" offset="0" stop-color="#a5adad" stop-opacity="1"/><stop id="stop2206" offset="1" stop-color="#e8f4ed" stop-opacity="1"/></linearGradient></defs><metadata id="metadata7"/><g id="layer1"><path id="path4959" fill="none" fill-opacity=".75" fill-rule="evenodd" stroke="#6393c4" stroke-dasharray="none" stroke-linecap="square" stroke-linejoin="miter" stroke-miterlimit="4" stroke-opacity="1" stroke-width=".75" d="M -10.040161,0 L 30.02008,0"/><path id="path5834" fill="none" fill-opacity="1" fill-rule="nonzero" stroke="#6393c4" stroke-dasharray="none" stroke-dashoffset="0" stroke-linecap="square" stroke-linejoin="round" stroke-miterlimit="4" stroke-opacity="1" stroke-width=".5" d="M 41.474352 0.58036447 A 0.70203978 0.70203978 0 1 1 40.070272,0.58036447 A 0.70203978 0.70203978 0 1 1 41.474352 0.58036447 z" opacity="1" transform="translate(-9.800192,-0.5855)"/><path id="path6709" fill="none" fill-opacity=".75" fill-rule="evenodd" stroke="#6393c4" stroke-dasharray="none" stroke-linecap="square" stroke-linejoin="miter" stroke-miterlimit="4" stroke-opacity="1" stroke-width=".4" d="M 31.893223,0 L 36.857277,0"/><path id="path1331" fill="#6393c4" fill-opacity="1" fill-rule="nonzero" stroke="none" stroke-dasharray="none" stroke-dashoffset="0" stroke-linecap="square" stroke-linejoin="round" stroke-miterlimit="4" stroke-opacity="1" stroke-width="2.5" d="M -4.315094 5.0287085 A 1.8437219 1.8437219 0 1 1 -8.0025377,5.0287085 A 1.8437219 1.8437219 0 1 1 -4.315094 5.0287085 z" opacity="1" transform="matrix(0.756146,0,0,0.756146,4.658387,-3.800793)"/><path id="path3079" fill="#282d30" fill-opacity="1" fill-rule="nonzero" stroke="none" stroke-dasharray="none" stroke-dashoffset="0" stroke-linecap="square" stroke-linejoin="round" stroke-miterlimit="4" stroke-opacity="1" stroke-width="2.5" d="M -4.6136081 3.2574077 A 0.84317666 0.84317666 0 1 1 -6.2999614,3.2574077 A 0.84317666 0.84317666 0 1 1 -4.6136081 3.2574077 z" opacity="1" transform="matrix(1.198104,0,0,1.198104,6.535898,-3.901356)"/></g></svg>