<svg xmlns="http://www.w3.org/2000/svg" xmlns:svg="http://www.w3.org/2000/svg" xmlns:xlink="http://www.w3.org/1999/xlink" id="svg2" width="48" height="48" version="1.0"><metadata id="metadata46"/><defs id="defs4"><linearGradient id="linearGradient6326"><stop id="stop6328" offset="0" stop-color="#da8813" stop-opacity="1"/><stop id="stop6330" offset="1" stop-color="#c56212" stop-opacity="1"/></linearGradient><linearGradient id="linearGradient3156"><stop id="stop3158" offset="0" stop-color="#fff" stop-opacity="1"/><stop id="stop3160" offset="1" stop-color="#fff" stop-opacity="0"/></linearGradient><linearGradient id="linearGradient6493"><stop id="stop6495" offset="0" stop-color="#cd8033" stop-opacity="1"/><stop id="stop6497" offset="1" stop-color="#bb5e12" stop-opacity="1"/></linearGradient><linearGradient id="linearGradient4103"><stop id="stop4105" offset="0" stop-color="#edd563" stop-opacity="1"/><stop id="stop4107" offset="1" stop-color="#e08223" stop-opacity="1"/></linearGradient><linearGradient id="linearGradient8838"><stop id="stop8840" offset="0" stop-color="#000" stop-opacity="1"/><stop id="stop8842" offset="1" stop-color="#000" stop-opacity="0"/></linearGradient><radialGradient id="radialGradient5729" cx="62.625" cy="4.625" r="10.625" fx="62.625" fy="4.625" gradientTransform="matrix(1,0,0,0.341176,0,3.047059)" gradientUnits="userSpaceOnUse" xlink:href="#linearGradient8838"/><linearGradient id="linearGradient5745" x1="24.335" x2="28.29" y1="61.853" y2="20.664" gradientUnits="userSpaceOnUse" xlink:href="#linearGradient3156"/><linearGradient id="linearGradient5747" x1="27.889" x2="28.29" y1="-.815" y2="20.664" gradientUnits="userSpaceOnUse" xlink:href="#linearGradient3156"/><linearGradient id="linearGradient5749" x1="28.221" x2="28.29" y1="-2.31" y2="20.664" gradientUnits="userSpaceOnUse" xlink:href="#linearGradient3156"/><linearGradient id="linearGradient5751" x1="30.502" x2="29.725" y1="55.647" y2="24.654" gradientUnits="userSpaceOnUse" xlink:href="#linearGradient3156"/><radialGradient id="radialGradient5537" cx="22.945" cy="11.223" r="14" fx="22.945" fy="4.761" gradientTransform="matrix(1.3571044,0.01021839,-0.00631345,0.8384895,-10.874695,1.3057951)" gradientUnits="userSpaceOnUse" xlink:href="#linearGradient3156"/><radialGradient id="radialGradient5540" cx="22.125" cy="10.875" r="20" fx="22.125" fy="10.875" gradientTransform="matrix(1.0099925,-0.1119962,0.05668752,0.5112133,-5.8375646,1.7934718)" gradientUnits="userSpaceOnUse" xlink:href="#linearGradient3156"/><radialGradient id="radialGradient5551" cx="20.039" cy="12.61" r="22.464" fx="20.039" fy="12.61" gradientTransform="matrix(1.9524671,-0.05018139,0.03650944,1.4214826,-20.408334,-5.9089096)" gradientUnits="userSpaceOnUse" xlink:href="#linearGradient3242-187-536"/><linearGradient id="linearGradient5553" x1="29.013" x2="29.75" y1="29" y2="50" gradientTransform="translate(-5.0000016,-6)" gradientUnits="userSpaceOnUse" xlink:href="#linearGradient6403"/><radialGradient id="radialGradient6332" cx="26" cy="15.24" r="15.075" fx="26" fy="15.24" gradientTransform="matrix(2.2554569,0,-2.1857407e-8,2.0564463,-32.641879,-17.341228)" gradientUnits="userSpaceOnUse" xlink:href="#linearGradient2490-182-124"/><linearGradient id="linearGradient2471" x1="10.44" x2="10.728" y1="9.966" y2="57.841" gradientTransform="matrix(1.0408371,0,0,1.0332075,-1.5095624,-1.577785)" gradientUnits="userSpaceOnUse" xlink:href="#linearGradient2782"/><linearGradient id="linearGradient2782"><stop id="stop2784" offset="0" stop-color="#fff" stop-opacity="1"/><stop id="stop2786" offset="1" stop-color="#fff" stop-opacity="0"/></linearGradient><linearGradient id="linearGradient2474" x1="12.35" x2="12.35" y1="3.045" y2="44.971" gradientTransform="matrix(1.0426124,0,0,1.0259981,0.1237342,-1.1239408)" gradientUnits="userSpaceOnUse" xlink:href="#linearGradient6403"/><linearGradient id="linearGradient2481" x1="10.44" x2="10.728" y1="9.966" y2="57.841" gradientTransform="matrix(1.0408371,0,0,1.0332076,20.490446,-1.577786)" gradientUnits="userSpaceOnUse" xlink:href="#linearGradient2782"/><linearGradient id="linearGradient2484" x1="12.35" x2="12.35" y1="3.045" y2="44.971" gradientTransform="matrix(1.0426124,0,0,1.0259979,22.123737,-1.1239411)" gradientUnits="userSpaceOnUse" xlink:href="#linearGradient6403"/><linearGradient id="linearGradient6403"><stop id="stop6405" offset="0" stop-color="#eeeeec" stop-opacity="1"/><stop id="stop6409" offset="1" stop-color="#a1a59b" stop-opacity="1"/></linearGradient><linearGradient id="linearGradient2179" x1="49.882" x2="34.163" y1="30.701" y2="46.421" gradientTransform="matrix(1.0317991,-1.0287411,1.0317991,1.0287411,-59.146403,28.538123)" gradientUnits="userSpaceOnUse" xlink:href="#linearGradient1322"/><linearGradient id="linearGradient1322"><stop id="stop1324" offset="0" stop-color="#b4b4b4" stop-opacity="1"/><stop id="stop1326" offset="1" stop-color="#505050" stop-opacity="1"/></linearGradient><linearGradient id="linearGradient2181" x1="31.865" x2="16.145" y1="17.13" y2="32.85" gradientTransform="matrix(1.0317991,-1.0287411,1.0317991,1.0287411,-26.552863,23.963668)" gradientUnits="userSpaceOnUse" xlink:href="#linearGradient7916"/><linearGradient id="linearGradient7916"><stop id="stop7918" offset="0" stop-color="#fff" stop-opacity="1"/><stop id="stop7920" offset="1" stop-color="#fff" stop-opacity=".34"/></linearGradient><radialGradient id="radialGradient2177" cx="23.071" cy="35.127" r="10.319" fx="23.071" fy="35.127" gradientTransform="matrix(0.914812,0.01265023,-0.00821502,0.213562,2.253914,27.18889)" gradientUnits="userSpaceOnUse" xlink:href="#linearGradient2091"/><linearGradient id="linearGradient2091"><stop id="stop2093" offset="0" stop-color="#000" stop-opacity="1"/><stop id="stop2095" offset="1" stop-color="#000" stop-opacity="0"/></linearGradient><linearGradient id="linearGradient2479" x1="20.484" x2="20.484" y1="12.82" y2="-.438" gradientTransform="matrix(0,-0.8625289,0.8486552,0,3.2697061,51.022455)" gradientUnits="userSpaceOnUse" xlink:href="#linearGradient2187"/><linearGradient id="linearGradient2187"><stop id="stop2189" offset="0" stop-color="#fff" stop-opacity=".643"/><stop id="stop2191" offset="1" stop-color="#fff" stop-opacity="0"/></linearGradient><linearGradient id="linearGradient2482" x1="23.997" x2="-.073" y1="15.5" y2="15.5" gradientTransform="matrix(0.7241542,0,0,0.7359927,1.978684,11.204435)" gradientUnits="userSpaceOnUse" xlink:href="#linearGradient3698"/><linearGradient id="linearGradient3698"><stop id="stop3700" offset="0" stop-color="#7ea8ce" stop-opacity="1"/><stop id="stop3702" offset=".763" stop-color="#568dc0" stop-opacity=".816"/><stop id="stop3704" offset="1" stop-color="#c9e1f8" stop-opacity="0"/></linearGradient><linearGradient id="linearGradient2484-9" x1="36.5" x2="-.098" y1="36" y2="36" gradientTransform="matrix(0.7241542,0,0,0.7359927,1.978684,11.204435)" gradientUnits="userSpaceOnUse" xlink:href="#linearGradient3914"/><linearGradient id="linearGradient3914"><stop id="stop3916" offset="0" stop-color="#2c79c0" stop-opacity="1"/><stop id="stop3918" offset=".797" stop-color="#2970b3" stop-opacity=".498"/><stop id="stop3920" offset="1" stop-color="#236098" stop-opacity="0"/></linearGradient><linearGradient id="linearGradient3312" x1="32.892" x2="36.358" y1="8.059" y2="5.457" gradientTransform="matrix(0.9976985,0,0,1.0406866,0.1638029,-1.1057939)" gradientUnits="userSpaceOnUse" xlink:href="#linearGradient8589"/><linearGradient id="linearGradient8589"><stop id="stop8591" offset="0" stop-color="#fefefe" stop-opacity="1"/><stop id="stop8593" offset="1" stop-color="#cbcbcb" stop-opacity="1"/></linearGradient><filter id="filter3212" width="1.297" height="1.329" x="-.148" y="-.164"><feGaussianBlur id="feGaussianBlur3214" stdDeviation=".774"/></filter><linearGradient id="linearGradient3316" x1="24" x2="24" y1="2" y2="46.017" gradientTransform="matrix(1,0,0,0.9777778,0,-0.9666693)" gradientUnits="userSpaceOnUse" xlink:href="#linearGradient3211"/><linearGradient id="linearGradient3211"><stop id="stop3213" offset="0" stop-color="#fff" stop-opacity="1"/><stop id="stop3215" offset="1" stop-color="#fff" stop-opacity="0"/></linearGradient><radialGradient id="radialGradient3319" cx="102" cy="112.305" r="139.559" gradientTransform="matrix(0.3617022,0,0,-0.3907784,0.8510637,47.517004)" gradientUnits="userSpaceOnUse" xlink:href="#XMLID_8_"/><radialGradient id="XMLID_8_" cx="102" cy="112.305" r="139.559" gradientUnits="userSpaceOnUse"><stop id="stop41" offset="0" stop-color="#b7b8b9" stop-opacity="1"/><stop id="stop47" offset=".189" stop-color="#ececec" stop-opacity="1"/><stop id="stop49" offset=".257" stop-color="#fafafa" stop-opacity="0"/><stop id="stop51" offset=".301" stop-color="#fff" stop-opacity="0"/><stop id="stop53" offset=".531" stop-color="#fafafa" stop-opacity="0"/><stop id="stop55" offset=".845" stop-color="#ebecec" stop-opacity="0"/><stop id="stop57" offset="1" stop-color="#e1e2e3" stop-opacity="0"/></radialGradient><linearGradient id="linearGradient3322" x1="25.132" x2="25.132" y1=".985" y2="47.013" gradientTransform="matrix(1,0,0,0.9561695,-1.0064697e-7,-1.914922)" gradientUnits="userSpaceOnUse" xlink:href="#linearGradient3600"/><linearGradient id="linearGradient3600"><stop id="stop3602" offset="0" stop-color="#f4f4f4" stop-opacity="1"/><stop id="stop3604" offset="1" stop-color="#dbdbdb" stop-opacity="1"/></linearGradient><linearGradient id="linearGradient3324" x1="-51.786" x2="-51.786" y1="50.786" y2="2.906" gradientTransform="matrix(0.8074968,0,0,0.8948322,59.410232,-2.9805533)" gradientUnits="userSpaceOnUse" xlink:href="#linearGradient3104"/><linearGradient id="linearGradient3104"><stop id="stop3106" offset="0" stop-color="#aaa" stop-opacity="1"/><stop id="stop3108" offset="1" stop-color="#c8c8c8" stop-opacity="1"/></linearGradient><radialGradient id="radialGradient3327" cx="605.714" cy="486.648" r="117.143" fx="605.714" fy="486.648" gradientTransform="matrix(2.3039948e-2,0,0,1.4700216e-2,26.360882,37.040176)" gradientUnits="userSpaceOnUse" xlink:href="#linearGradient5060"/><linearGradient id="linearGradient5060"><stop id="stop5062" offset="0" stop-color="#000" stop-opacity="1"/><stop id="stop5064" offset="1" stop-color="#000" stop-opacity="0"/></linearGradient><radialGradient id="radialGradient3330" cx="605.714" cy="486.648" r="117.143" fx="605.714" fy="486.648" gradientTransform="matrix(-2.3039943e-2,0,0,1.4700216e-2,21.62311,37.040176)" gradientUnits="userSpaceOnUse" xlink:href="#linearGradient5060"/><linearGradient id="linearGradient3333" x1="302.857" x2="302.857" y1="366.648" y2="609.505" gradientTransform="matrix(6.7324884e-2,0,0,1.4700216e-2,-0.3411391,37.040146)" gradientUnits="userSpaceOnUse" xlink:href="#linearGradient5048"/><linearGradient id="linearGradient5048"><stop id="stop5050" offset="0" stop-color="#000" stop-opacity="0"/><stop id="stop5056" offset=".5" stop-color="#000" stop-opacity="1"/><stop id="stop5052" offset="1" stop-color="#000" stop-opacity="0"/></linearGradient><linearGradient id="linearGradient3526" x1="63.397" x2="63.397" y1="-12.489" y2="5.468" gradientTransform="matrix(2.1153735,0,0,2.1153253,-107.57709,32.426559)" gradientUnits="userSpaceOnUse" xlink:href="#linearGradient4873"/><linearGradient id="linearGradient4873"><stop id="stop4875" offset="0" stop-color="#fff" stop-opacity="1"/><stop id="stop4877" offset="1" stop-color="#fff" stop-opacity="0"/></linearGradient><radialGradient id="radialGradient3529" cx="23.896" cy="3.99" r="20.397" fx="23.896" fy="3.99" gradientTransform="matrix(0,2.2874593,-3.0194057,0,36.047437,-50.630156)" gradientUnits="userSpaceOnUse" xlink:href="#linearGradient3242-187-536"/><linearGradient id="linearGradient3242-187-536"><stop id="stop2778" offset="0" stop-color="#8badea" stop-opacity="1"/><stop id="stop2780" offset=".262" stop-color="#6396cd" stop-opacity="1"/><stop id="stop2782" offset=".661" stop-color="#3b7caf" stop-opacity="1"/><stop id="stop2784-2" offset="1" stop-color="#194c70" stop-opacity="1"/></linearGradient><linearGradient id="linearGradient3531" x1="18.379" x2="18.379" y1="44.98" y2="3.082" gradientTransform="matrix(0.9584364,0,0,0.9584366,0.9975246,1.9975253)" gradientUnits="userSpaceOnUse" xlink:href="#linearGradient2490-182-124"/><linearGradient id="linearGradient2490-182-124"><stop id="stop2788" offset="0" stop-color="#1f4b6a" stop-opacity="1"/><stop id="stop2790" offset="1" stop-color="#4083c2" stop-opacity="1"/></linearGradient><radialGradient id="radialGradient3534" cx="62.625" cy="4.625" r="10.625" fx="62.625" fy="4.625" gradientTransform="matrix(2.1647059,0,0,0.7529402,-111.56471,36.517647)" gradientUnits="userSpaceOnUse" xlink:href="#linearGradient8838-1"/><linearGradient id="linearGradient8838-1"><stop id="stop8840-0" offset="0" stop-color="#000" stop-opacity="1"/><stop id="stop8842-2" offset="1" stop-color="#000" stop-opacity="0"/></linearGradient></defs><g id="layer1"><g id="g6334"><path id="path8836" fill="url(#radialGradient5729)" fill-opacity="1" fill-rule="evenodd" stroke="none" stroke-width=".496" d="m 73.25,4.625 c 0,2.0020323 -4.756974,3.6250001 -10.625,3.6250001 C 56.756974,8.2500001 52,6.6270323 52,4.625 52,2.6229677 56.756974,0.99999989 62.625,0.99999989 c 5.868026,0 10.625,1.62296781 10.625,3.62500011 l 0,0 z" display="inline" opacity=".4" overflow="visible" transform="matrix(1.9262213,0,0,2.1088276,-97.163508,29.602172)" visibility="visible" style="marker:none"/><path id="path1307" fill="url(#radialGradient5551)" fill-opacity="1" stroke="#1f4b6a" stroke-dasharray="none" stroke-dashoffset="0" stroke-linecap="round" stroke-linejoin="round" stroke-miterlimit="4" stroke-opacity="1" stroke-width=".998" d="m 44.500921,23 c 0,11.316512 -9.178384,20.500922 -20.487463,20.500922 -11.30908,0 -20.4874629,-9.18441 -20.4874629,-20.500922 0,-11.316509 9.1783829,-20.5009224 20.4874629,-20.5009224 11.309079,0 20.487463,9.1844134 20.487463,20.5009224 z"/><path id="path6628" fill="url(#radialGradient6332)" fill-opacity="1" fill-rule="nonzero" stroke="none" d="M 43.219099,18.237303 43.03226,18.957842 C 42.479353,18.498341 41.858575,18.11192 41.228194,17.708339 l -1.383757,0.143595 -1.264237,-1.007844 0,1.247283 1.083135,0.577996 0.720932,0.57578 0.963449,-0.768406 c 0.242517,0.320344 0.481723,0.640687 0.722585,0.961031 l 0,0.95998 -1.08479,0.864133 -1.985167,0.961031 -1.503445,1.058044 -0.963448,-0.770739 0.481724,-0.864133 -0.961957,-0.768403 -1.62462,-2.448926 -1.383757,-1.103574 -0.362204,0.287307 0.54314,1.393213 1.021718,0.816269 c 0.583533,1.18798 1.160774,2.323424 1.927064,3.458986 1.188253,0 2.30847,-0.08896 3.48861,-0.193795 l 0,0.672677 -1.443683,2.497372 -1.323998,1.05571 -1.083133,1.634872 c 0,0.896122 0,1.792244 0,2.688249 l 0.362204,1.058043 -0.601411,0.478882 -1.325653,0.576827 -1.383756,0.816269 1.14455,0.912115 -1.564859,0.962198 0.300623,0.622477 -2.347372,1.874314 -1.563204,0 -1.323998,0.576828 -0.843926,0 0,-0.768404 -0.358894,-1.539144 c -0.465667,-0.964534 -0.950536,-1.92218 -1.443684,-2.879825 0,-0.70688 0.05976,-1.406872 0.119686,-2.113636 l 0.603068,-0.95998 -0.843929,-1.153773 0.06142,-1.584674 -1.14455,-0.912115 0.572274,-1.32025 -0.931169,-0.745056 -1.626273,0 -0.541485,-0.432068 -1.62462,0.721124 -0.661169,-0.529547 -1.5051,0.912582 c -1.02172,-0.816853 -2.045094,-1.633121 -3.068303,-2.44939 L 13.07,21.741935 l 1.083137,-1.151436 -0.601412,-0.479933 1.322342,-2.210651 c 1.086444,-0.953092 2.221227,-1.867425 3.369089,-2.785143 l 2.046584,-0.384204 2.285956,-0.191576 1.564859,0.288473 2.226032,1.583506 0.78251,-0.623643 1.081479,-0.09573 2.046584,0.479932 1.564861,0 1.083134,-0.672675 0.481723,-0.479932 -1.08479,-0.479932 -1.80572,-0.09573 c -0.501093,-0.490204 -0.966759,-1.005508 -1.561715,-1.441076 l -0.603065,0.191574 -0.240865,1.249502 -1.083133,-0.864131 -0.239207,-0.962199 -1.20282,-0.670338 -0.48338,0 1.20431,0.959978 -0.481723,0.864134 -0.961959,0.191576 0.60141,-0.864134 -1.084791,-0.383036 -0.960303,-0.768403 -1.807377,0.287304 -0.239206,0.383036 -1.083134,0.481099 -0.601411,1.056877 -1.503445,0.527797 -0.662824,-0.527797 -0.720932,0 0,-1.729435 1.564859,-0.576829 1.20282,0 -0.242517,-0.671507 -0.960303,-0.672675 1.62313,-0.240609 0.902032,-0.719371 0.720931,-0.8653012 1.325654,0 -0.362206,-0.6715064 0.843929,-0.3842031 0,0.7684043 1.804066,0.2873052 1.804067,-1.0557095 0.121174,-0.481099 1.563205,-0.7678216 c -0.56582,0.049618 -1.131638,0.08604 -1.684545,0.1921611 l 0,-0.8651834 0.601409,-0.9605654 -0.601409,0 -1.321678,0.8641345 -0.362207,0.4805153 0.362207,0.673259 -0.603067,1.1514366 -0.96196,-0.3842011 -0.840618,-0.6715065 -1.325651,0.6715065 -0.481725,-1.5362228 2.285956,-1.0562945 0,-0.5768291 L 25.223524,3.6847867 27.509479,3.3 l 1.56486,0.3847867 2.166268,0.9599803 -1.564858,0 1.564858,1.1526075 1.202823,-0.9599824 c 0,0 4.786235,2.4031505 7.258281,5.7266459 2.405352,3.233831 3.412213,6.909414 3.517388,7.673265 z"/><path id="path3164" fill="none" stroke="url(#radialGradient5540)" stroke-dasharray="none" stroke-dashoffset="0" stroke-linecap="round" stroke-linejoin="round" stroke-miterlimit="4" stroke-opacity="1" stroke-width=".996" d="m 43.501763,23 c 0,10.764976 -8.736791,19.501764 -19.501765,19.501764 C 13.235024,42.501764 4.4982338,33.764976 4.4982338,23 c 0,-10.764974 8.7367902,-19.5017646 19.5017642,-19.5017646 10.764974,0 19.501765,8.7367906 19.501765,19.5017646 z" opacity=".7"/><path id="path3154" fill="url(#radialGradient5537)" fill-opacity="1" stroke="none" d="m 42.999998,16.746704 c 0,7.114117 -8.512001,11.02908 -18.999999,11.02908 -10.488002,0 -19.0000006,-3.914963 -19.0000006,-11.02908 C 4.9999984,9.632588 13.511997,2 23.999999,2 34.487997,2 42.999998,9.632588 42.999998,16.746704 z" opacity=".5"/><path id="path2218" fill="none" stroke="url(#linearGradient5745)" stroke-dasharray="none" stroke-dashoffset="0" stroke-linecap="round" stroke-linejoin="miter" stroke-miterlimit="4" stroke-opacity="1" stroke-width="1.095" d="m 46,24.25 c 0,9.664983 -7.835017,17.5 -17.5,17.5 -9.664983,0 -17.5,-7.835017 -17.5,-17.5 0,-9.664983 7.835017,-17.5 17.5,-17.5 9.664983,0 17.5,7.835017 17.5,17.5 l 0,0 z" opacity=".5" transform="matrix(1.076193,-0.2912862,0.1952728,0.7143165,-11.182741,14.979481)"/><path id="path2230" fill="none" stroke="url(#linearGradient5747)" stroke-dasharray="none" stroke-dashoffset="0" stroke-linecap="round" stroke-linejoin="miter" stroke-miterlimit="4" stroke-opacity="1" stroke-width="1.09" d="m 46,24.25 c 0,9.664983 -7.835017,17.5 -17.5,17.5 -9.664983,0 -17.5,-7.835017 -17.5,-17.5 0,-9.664983 7.835017,-17.5 17.5,-17.5 9.664983,0 17.5,7.835017 17.5,17.5 l 0,0 z" opacity=".5" transform="matrix(1.1247273,-0.00679075,0.00112312,0.7429216,-7.8873839,2.6776872)"/><path id="path2234" fill="none" stroke="url(#linearGradient5749)" stroke-dasharray="none" stroke-dashoffset="0" stroke-linecap="round" stroke-linejoin="miter" stroke-miterlimit="4" stroke-opacity="1" stroke-width="1.129" d="m 46,24.25 c 0,9.664983 -7.835017,17.5 -17.5,17.5 -9.664983,0 -17.5,-7.835017 -17.5,-17.5 0,-9.664983 7.835017,-17.5 17.5,-17.5 9.664983,0 17.5,7.835017 17.5,17.5 l 0,0 z" opacity=".5" transform="matrix(-0.09940095,-1.1197712,0.6946105,-0.03998764,8.1749534,56.475018)"/><path id="path2240" fill="none" stroke="url(#linearGradient5751)" stroke-dasharray="none" stroke-dashoffset="0" stroke-linecap="round" stroke-linejoin="miter" stroke-miterlimit="4" stroke-opacity="1" stroke-width="1.367" d="m 46,24.25 c 0,9.664983 -7.835017,17.5 -17.5,17.5 -9.664983,0 -17.5,-7.835017 -17.5,-17.5 0,-9.664983 7.835017,-17.5 17.5,-17.5 9.664983,0 17.5,7.835017 17.5,17.5 l 0,0 z" opacity=".5" transform="matrix(-0.1600777,-1.1032472,0.4856389,0.01692093,16.935466,54.089297)"/><path id="path2255" fill="#fff" fill-opacity="1" stroke="none" d="m 31.375,37.875 c 0,0.966498 -0.783502,1.75 -1.75,1.75 -0.966498,0 -1.75,-0.783502 -1.75,-1.75 0,-0.966498 0.783502,-1.75 1.75,-1.75 0.966498,0 1.75,0.783502 1.75,1.75 l 0,0 z" opacity=".4" transform="matrix(0.7873429,-0.2144143,0.2141677,0.7882494,1.2604149,11.541737)"/><path id="path2275" fill="#fff" fill-opacity="1" stroke="none" d="m 31.375,37.875 c 0,0.966498 -0.783502,1.75 -1.75,1.75 -0.966498,0 -1.75,-0.783502 -1.75,-1.75 0,-0.966498 0.783502,-1.75 1.75,-1.75 0.966498,0 1.75,0.783502 1.75,1.75 l 0,0 z" opacity=".4" transform="matrix(0.6748654,-0.1837837,0.2141677,0.7882494,-14.193998,12.29353)"/><path id="path2283" fill="#fff" fill-opacity="1" stroke="none" d="m 31.375,37.875 c 0,0.966498 -0.783502,1.75 -1.75,1.75 -0.966498,0 -1.75,-0.783502 -1.75,-1.75 0,-0.966498 0.783502,-1.75 1.75,-1.75 0.966498,0 1.75,0.783502 1.75,1.75 l 0,0 z" opacity=".4" transform="matrix(0.7873429,-0.2144143,0.324169,0.6373544,-8.3660962,-9.8985024)"/><path id="path2291" fill="#fff" fill-opacity="1" stroke="none" d="m 31.375,37.875 c 0,0.966498 -0.783502,1.75 -1.75,1.75 -0.966498,0 -1.75,-0.783502 -1.75,-1.75 0,-0.966498 0.783502,-1.75 1.75,-1.75 0.966498,0 1.75,0.783502 1.75,1.75 l 0,0 z" opacity=".4" transform="matrix(0.7873429,-0.2144143,-0.01326253,0.7292459,-10.705973,-10.742804)"/></g></g></svg>